<?xml version="1.0" encoding="UTF-8"?><svg id="Vrstva_1" xmlns="http://www.w3.org/2000/svg" viewBox="0 0 141.73 141.73"><style>
		path {
			fill: black;
		}
	</style><defs><style>.cls-1{fill:#010101;}</style></defs><path d="M15.86,12.65H63.42c12.35,0,23.25,2.48,32.71,7.43,9.45,4.95,16.8,11.85,22.03,20.69,5.23,8.84,7.84,18.94,7.84,30.29s-2.62,21.44-7.84,30.29c-5.23,8.84-12.57,15.74-22.03,20.69-9.46,4.95-20.36,7.43-32.71,7.43H15.86V12.65ZM62.75,118.78c10.23,0,19.19-2.03,26.86-6.09,7.67-4.06,13.63-9.68,17.85-16.85,4.23-7.18,6.34-15.43,6.34-24.78s-2.12-17.6-6.34-24.78c-4.23-7.17-10.18-12.79-17.85-16.85-7.68-4.06-16.63-6.09-26.86-6.09H28.21V118.78H62.75Z"/><path d="M80.46,91.41l-.12-18.55-8.84,14.89h-6.05l-8.84-14.25v17.91h-12.5V50.7h11.28l13.26,21.69,12.91-21.69h11.28l.12,40.71h-12.5Z"/></svg>
