<svg id="Сгруппировать_92" data-name="Сгруппировать 92" xmlns="http://www.w3.org/2000/svg" width="200" height="71.433" viewBox="0 0 200 71.433">
  <g id="Сгруппировать_91" data-name="Сгруппировать 91" transform="translate(0.233 61.902)">
    <path id="Контур_1230" data-name="Контур 1230" d="M254.551,348.334a5.13,5.13,0,0,0-.35-.583,1.573,1.573,0,0,0-.467-.408,1.967,1.967,0,0,0-.992-.292,1.48,1.48,0,0,0-.934.233.991.991,0,0,0-.35.35,1.082,1.082,0,0,0-.117.408.941.941,0,0,0,.175.525,2.358,2.358,0,0,0,.934.408l1.284.35a2.931,2.931,0,0,1,.758.292,1.27,1.27,0,0,1,.525.408,2.59,2.59,0,0,1,.467.642,1.8,1.8,0,0,1,.175.758,1.646,1.646,0,0,1-.233.875,1.855,1.855,0,0,1-.642.7,2.045,2.045,0,0,1-.817.35,5.229,5.229,0,0,1-1.05.117,2.83,2.83,0,0,1-2.334-.992,3.136,3.136,0,0,1-.583-1.342l1.05-.292a1.739,1.739,0,0,0,.408.934,1.426,1.426,0,0,0,.642.525,2.341,2.341,0,0,0,.875.175,2.928,2.928,0,0,0,.7-.117,1.1,1.1,0,0,0,.525-.233.867.867,0,0,0,.35-.758.937.937,0,0,0-.292-.642,1.844,1.844,0,0,0-.758-.408l-1.342-.408a4.107,4.107,0,0,1-1.342-.642,1.333,1.333,0,0,1-.408-.583,1.48,1.48,0,0,1-.117-.7,1.967,1.967,0,0,1,.292-.992,2.185,2.185,0,0,1,.758-.7A3.6,3.6,0,0,1,252.8,346a2.7,2.7,0,0,1,1.459.35,3.158,3.158,0,0,1,1.284,1.575Z" transform="translate(-250 -343.958)" fill="#164085"/>
    <path id="Контур_1231" data-name="Контур 1231" d="M272.434,347.392h-2.392v6.126h-1.05v-6.126H266.6V346.4h5.776v.992Z" transform="translate(-256.915 -344.125)" fill="#164085"/>
    <path id="Контур_1232" data-name="Контур 1232" d="M288.717,351.952l-1.225-2.567H285.45v2.567H284.4v-7.118h3.092a3.416,3.416,0,0,1,.758.117,2.535,2.535,0,0,1,.992.7,2.017,2.017,0,0,1,.408.7,1.854,1.854,0,0,1,.117.817,2.93,2.93,0,0,1-.117.7,6.37,6.37,0,0,1-.35.642,2.618,2.618,0,0,1-.758.642l1.342,2.8Zm-1.984-7.818-1.575-.933.408-.7,1.225.7,1.225-.7.408.7Zm-1.342,4.259h2.042a1.7,1.7,0,0,0,.525-.117,3.236,3.236,0,0,0,.467-.35,1.229,1.229,0,0,0,.292-.758,1.7,1.7,0,0,0-.117-.525.94.94,0,0,0-.233-.408,1.046,1.046,0,0,0-.408-.292,1.8,1.8,0,0,0-.467-.117H285.45v2.567Z" transform="translate(-264.33 -342.5)" fill="#164085"/>
    <path id="Контур_1233" data-name="Контур 1233" d="M303.392,347.433v2.1h2.917v.992h-2.917v2.1h3.5v.992H302.4V346.5h4.492v.992h-3.5Z" transform="translate(-271.828 -344.166)" fill="#164085"/>
    <path id="Контур_1234" data-name="Контур 1234" d="M324.459,350.059a4.24,4.24,0,0,1-.233,1.459,3.193,3.193,0,0,1-.642,1.167,3.31,3.31,0,0,1-1.05.7,3.139,3.139,0,0,1-1.284.233H318.8V346.5h2.45a2.969,2.969,0,0,1,1.284.233,2.536,2.536,0,0,1,.992.7,3.886,3.886,0,0,1,.7,1.167A4.029,4.029,0,0,1,324.459,350.059Zm-1.05-.058a6.428,6.428,0,0,0-.117-1.05,1.881,1.881,0,0,0-.467-.817,1.161,1.161,0,0,0-.7-.467,3.875,3.875,0,0,0-.875-.175h-1.4v5.134h1.4a2.342,2.342,0,0,0,.875-.175,2.1,2.1,0,0,0,.7-.467A3.21,3.21,0,0,0,323.409,350Z" transform="translate(-278.66 -344.166)" fill="#164085"/>
    <path id="Контур_1235" data-name="Контур 1235" d="M341.451,351.709V346.4h1.05v7.118h-1.05l-3.5-5.309v5.309H336.9V346.4h1.05Z" transform="translate(-286.2 -344.125)" fill="#164085"/>
    <path id="Контур_1236" data-name="Контур 1236" d="M354.092,344.192l-.292-.758,2.509-.934.292.758Zm.642.642v7.118h1.05v-7.118Z" transform="translate(-293.24 -342.5)" fill="#164085"/>
    <path id="Контур_1237" data-name="Контур 1237" d="M377.525,353.276a2.335,2.335,0,0,1-1.109-.875,4.034,4.034,0,0,1-.817-2.625,4.973,4.973,0,0,1,.175-1.342,4.373,4.373,0,0,1,.583-1.167,3.357,3.357,0,0,1,1.109-.875,3.792,3.792,0,0,1,2.917,0,2.626,2.626,0,0,1,1.108.817,4.442,4.442,0,0,1,0,5.134,2.335,2.335,0,0,1-1.108.875,4.063,4.063,0,0,1-1.459.292A2.387,2.387,0,0,1,377.525,353.276Zm2.45-.875a1.9,1.9,0,0,0,.758-.583,3.214,3.214,0,0,0,.525-1.984,3.077,3.077,0,0,0-.525-1.867,1.715,1.715,0,0,0-.7-.583,2.9,2.9,0,0,0-1.984,0,1.9,1.9,0,0,0-.758.583,3.792,3.792,0,0,0,0,3.851,1.9,1.9,0,0,0,.758.583,2.747,2.747,0,0,0,.934.233A3.457,3.457,0,0,0,379.976,352.4Z" transform="translate(-302.321 -344)" fill="#164085"/>
    <path id="Контур_1238" data-name="Контур 1238" d="M401.159,350.059a4.239,4.239,0,0,1-.233,1.459,3.194,3.194,0,0,1-.642,1.167,3.311,3.311,0,0,1-1.05.7,3.139,3.139,0,0,1-1.284.233H395.5V346.5h2.45a2.969,2.969,0,0,1,1.284.233,2.536,2.536,0,0,1,.992.7,3.885,3.885,0,0,1,.7,1.167A4.028,4.028,0,0,1,401.159,350.059ZM400.051,350a6.431,6.431,0,0,0-.117-1.05,1.881,1.881,0,0,0-.467-.817,1.161,1.161,0,0,0-.7-.467,3.874,3.874,0,0,0-.875-.175h-1.4v5.134h1.4a2.341,2.341,0,0,0,.875-.175,2.1,2.1,0,0,0,.7-.467A2.88,2.88,0,0,0,400.051,350Z" transform="translate(-310.611 -344.166)" fill="#164085"/>
    <path id="Контур_1239" data-name="Контур 1239" d="M418.676,351.459a2.928,2.928,0,0,1-.117.7,1.753,1.753,0,0,1-.35.642,2.1,2.1,0,0,1-1.05.7,3.939,3.939,0,0,1-.817.117H413.6V346.5h2.625a2.285,2.285,0,0,1,.758.117,1.965,1.965,0,0,1,.992.642,1.824,1.824,0,0,1,.292.583,2.481,2.481,0,0,1,.117.642,2.073,2.073,0,0,1-.117.583,2.363,2.363,0,0,1-.292.525.806.806,0,0,0-.175.233,1.776,1.776,0,0,1,.467.467A1.589,1.589,0,0,1,418.676,351.459Zm-4.026-4.026v1.925h1.75a1.484,1.484,0,0,0,.408-.117,1.545,1.545,0,0,0,.35-.292,1.036,1.036,0,0,0,.233-.583,1.224,1.224,0,0,0-.233-.642.582.582,0,0,0-.292-.233.865.865,0,0,0-.408-.058Zm2.742,3.326a1.046,1.046,0,0,0-.408-.292,1.372,1.372,0,0,0-.467-.117h-1.925v2.275h1.692a1.8,1.8,0,0,0,.583-.058.675.675,0,0,0,.408-.292,1.059,1.059,0,0,0,.35-.817A1.121,1.121,0,0,0,417.392,350.759Z" transform="translate(-318.151 -344.166)" fill="#164085"/>
    <path id="Контур_1240" data-name="Контур 1240" d="M432.025,353.276a2.334,2.334,0,0,1-1.109-.875,4.034,4.034,0,0,1-.817-2.625,4.973,4.973,0,0,1,.175-1.342,4.374,4.374,0,0,1,.583-1.167,3.358,3.358,0,0,1,1.109-.875,3.792,3.792,0,0,1,2.917,0,2.627,2.627,0,0,1,1.109.817,4.443,4.443,0,0,1,0,5.134,2.335,2.335,0,0,1-1.109.875,4.063,4.063,0,0,1-1.459.292A2.387,2.387,0,0,1,432.025,353.276Zm2.392-.875a1.9,1.9,0,0,0,.758-.583,3.214,3.214,0,0,0,.525-1.984,3.077,3.077,0,0,0-.525-1.867,1.715,1.715,0,0,0-.7-.583,2.9,2.9,0,0,0-1.984,0,1.9,1.9,0,0,0-.758.583,3.792,3.792,0,0,0,0,3.851,1.9,1.9,0,0,0,.758.583,2.1,2.1,0,0,0,1.925,0Z" transform="translate(-325.024 -344)" fill="#164085"/>
    <path id="Контур_1241" data-name="Контур 1241" d="M454.317,353.618l-1.225-2.567H451.05v2.567H450V346.5h3.092a3.416,3.416,0,0,1,.758.117,2.534,2.534,0,0,1,.992.7,2.017,2.017,0,0,1,.408.7,1.854,1.854,0,0,1,.117.817,2.928,2.928,0,0,1-.117.7,6.366,6.366,0,0,1-.35.642,2.618,2.618,0,0,1-.758.642l1.342,2.8Zm-3.267-3.559h2.042a1.7,1.7,0,0,0,.525-.117,3.241,3.241,0,0,0,.467-.35,1.229,1.229,0,0,0,.292-.758,1.7,1.7,0,0,0-.117-.525.94.94,0,0,0-.233-.408,1.047,1.047,0,0,0-.408-.292,1.8,1.8,0,0,0-.467-.117h-2.042v2.567Z" transform="translate(-333.314 -344.166)" fill="#164085"/>
    <path id="Контур_1242" data-name="Контур 1242" d="M473.051,351.709V346.4h1.05v7.118h-1.05l-3.5-5.309v5.309H468.5V346.4h1.05Z" transform="translate(-341.02 -344.125)" fill="#164085"/>
    <path id="Контур_1243" data-name="Контур 1243" d="M490.609,350.668h-3.151l-.408,1.284H486l2.334-7.118h1.459l2.334,7.118h-1.05Zm-3.034-6.476-.292-.758,2.509-.934.292.758Zm2.742,5.484-1.284-3.851-1.225,3.851Z" transform="translate(-348.31 -342.5)" fill="#164085"/>
    <path id="Контур_1244" data-name="Контур 1244" d="M518.151,346.917a5.136,5.136,0,0,0-.35-.583,1.572,1.572,0,0,0-.467-.408,1.967,1.967,0,0,0-.992-.292,1.48,1.48,0,0,0-.933.233.99.99,0,0,0-.35.35,1.082,1.082,0,0,0-.117.408.941.941,0,0,0,.175.525,2.359,2.359,0,0,0,.934.408l1.284.35a2.927,2.927,0,0,1,.758.292,1.27,1.27,0,0,1,.525.408,2.593,2.593,0,0,1,.467.642,1.8,1.8,0,0,1,.175.759,1.646,1.646,0,0,1-.233.875,1.855,1.855,0,0,1-.642.7,2.046,2.046,0,0,1-.817.35,5.233,5.233,0,0,1-1.05.117,2.83,2.83,0,0,1-2.334-.992,3.136,3.136,0,0,1-.583-1.342l1.05-.292a1.739,1.739,0,0,0,.408.933,1.426,1.426,0,0,0,.642.525,2.341,2.341,0,0,0,.875.175,2.928,2.928,0,0,0,.7-.117,1.1,1.1,0,0,0,.525-.233.867.867,0,0,0,.35-.758.937.937,0,0,0-.292-.642,1.844,1.844,0,0,0-.758-.408l-1.342-.408a4.107,4.107,0,0,1-1.342-.642,1.334,1.334,0,0,1-.408-.583,1.48,1.48,0,0,1-.117-.7,1.967,1.967,0,0,1,.292-.992,2.184,2.184,0,0,1,.758-.7,3.6,3.6,0,0,1,1.459-.292,2.7,2.7,0,0,1,1.458.35,3.158,3.158,0,0,1,1.284,1.575Zm-3.326-3.617,1.575.934,1.575-.934-.408-.7-1.225.7-1.225-.7Z" transform="translate(-359.808 -342.542)" fill="#164085"/>
    <path id="Контур_1245" data-name="Контур 1245" d="M535.676,353.618l-2.567-3.092h-.758v3.092H531.3V346.5h1.05v3.034h.758l2.275-3.034h1.284l-2.625,3.5,2.976,3.617Z" transform="translate(-367.181 -344.166)" fill="#164085"/>
    <path id="Контур_1246" data-name="Контур 1246" d="M549.425,353.276a2.335,2.335,0,0,1-1.109-.875,4.034,4.034,0,0,1-.817-2.625,4.975,4.975,0,0,1,.175-1.342,4.377,4.377,0,0,1,.583-1.167,3.357,3.357,0,0,1,1.109-.875,3.792,3.792,0,0,1,2.917,0,2.626,2.626,0,0,1,1.108.817,4.442,4.442,0,0,1,0,5.134,2.334,2.334,0,0,1-1.108.875,4.063,4.063,0,0,1-1.459.292A2.387,2.387,0,0,1,549.425,353.276Zm2.45-.875a1.9,1.9,0,0,0,.758-.583,3.214,3.214,0,0,0,.525-1.984,3.077,3.077,0,0,0-.525-1.867,1.715,1.715,0,0,0-.7-.583,2.9,2.9,0,0,0-1.984,0,1.9,1.9,0,0,0-.758.583,3.792,3.792,0,0,0,0,3.851,1.9,1.9,0,0,0,.758.583,2.1,2.1,0,0,0,1.925,0Z" transform="translate(-373.929 -344)" fill="#164085"/>
    <path id="Контур_1247" data-name="Контур 1247" d="M568.65,346.5v6.126h3.209v.992H567.6V346.5Z" transform="translate(-382.302 -344.166)" fill="#164085"/>
    <path id="Контур_1248" data-name="Контур 1248" d="M586.509,352.334h-3.151l-.408,1.284H581.9l2.334-7.118h1.459l2.334,7.118h-1.05Zm-.292-.992-1.284-3.851-1.225,3.851Z" transform="translate(-388.259 -344.166)" fill="#164085"/>
  </g>
  <path id="Контур_1249" data-name="Контур 1249" d="M421.438,252.6v18.145h0v.175a12.253,12.253,0,0,1-24.5.175h0V252.6H390.4v18.495a18.775,18.775,0,0,0,18.786,18.611h0a18.813,18.813,0,0,0,18.786-18.611h0V252.6h-6.534Z" transform="translate(-308.253 -243.148)" fill="#164085"/>
  <path id="Контур_1250" data-name="Контур 1250" d="M565.14,282.78h0V270.12h0a19.02,19.02,0,1,0-19.02,19.02,18.7,18.7,0,0,0,11.727-4.084l7.235,7.235v-9.51Z" transform="translate(-365.198 -242.524)" fill="#ecc044"/>
  <path id="Контур_1251" data-name="Контур 1251" d="M356.323,239.492V236.4l-9.335,9.335h-9.277a18.611,18.611,0,1,0,18.611,18.611h0V239.492Z" transform="translate(-278.551 -236.4)" fill="#57b2e0"/>
  <path id="Контур_1252" data-name="Контур 1252" d="M479.445,289.29a18.845,18.845,0,1,1,17.678-25.321l-6.068,2.217a12.415,12.415,0,0,0-11.669-8.168,12.28,12.28,0,0,0-8.751,3.676,12.421,12.421,0,0,0-3.676,8.751A12.389,12.389,0,0,0,491,274.7l6.068,2.217A18.794,18.794,0,0,1,479.445,289.29Z" transform="translate(-337.496 -242.732)" fill="#164085"/>
  <path id="Контур_1253" data-name="Контур 1253" d="M287.465,270.161h0a18.949,18.949,0,0,0-18.9-18.962h0a18.949,18.949,0,0,0-18.9,18.962H249.6V272.5a.526.526,0,0,0,.058.292v.175a.526.526,0,0,0,.058.292v.175c0,.117.058.175.058.292a.214.214,0,0,0,.058.175c0,.117.058.175.058.292a.214.214,0,0,0,.058.175c0,.117.058.175.058.292,0,.058,0,.058.058.117a2.526,2.526,0,0,0,.058.292v.117c.058.117.058.233.117.35v.058c.058.117.058.233.117.35h0a19.013,19.013,0,0,0,16.161,13.127c.642.058,1.284.117,1.925.117h0a18.629,18.629,0,0,0,13.361-5.543l-4.492-4.492a12.562,12.562,0,0,1-8.926,3.676h-.758a.993.993,0,0,1-.408-.058.526.526,0,0,1-.292-.058.351.351,0,0,1-.233-.058c-.117,0-.292-.058-.408-.058h-.058a12.693,12.693,0,0,1-10.035-9.277h30.922a11.606,11.606,0,0,0,.35-3.15Zm-31.155-3.151a12.629,12.629,0,0,1,24.446,0Z" transform="translate(-249.6 -242.565)" fill="#164085"/>
</svg>
